<svg xmlns="http://www.w3.org/2000/svg" viewBox="0 0 64 64" fill="none">
  <defs>
    <linearGradient id="g" x1="0%" y1="0%" x2="100%" y2="100%">
      <stop offset="0%" stop-color="#4f46e5"/>
      <stop offset="50%" stop-color="#7c3aed"/>
      <stop offset="100%" stop-color="#06b6d4"/>
    </linearGradient>
  </defs>
  <rect width="64" height="64" rx="14" fill="#0a0a1a"/>
  <circle cx="32" cy="28" r="11" stroke="url(#g)" stroke-width="2.5"/>
  <path d="M22 44c0-5.5 4.5-10 10-10s10 4.5 10 10" stroke="url(#g)" stroke-width="2.5" stroke-linecap="round"/>
  <circle cx="27" cy="25" r="1.5" fill="url(#g)"/>
  <circle cx="37" cy="25" r="1.5" fill="url(#g)"/>
  <path d="M28.5 31c1 1 6 1 7 0" stroke="url(#g)" stroke-width="1.5" stroke-linecap="round"/>
  <rect x="10" y="10" width="10" height="2" rx="1" fill="#4f46e5" opacity="0.5"/>
  <rect x="10" y="10" width="2" height="10" rx="1" fill="#4f46e5" opacity="0.5"/>
  <rect x="44" y="10" width="10" height="2" rx="1" fill="#06b6d4" opacity="0.5"/>
  <rect x="52" y="10" width="2" height="10" rx="1" fill="#06b6d4" opacity="0.5"/>
  <rect x="10" y="52" width="10" height="2" rx="1" fill="#4f46e5" opacity="0.5"/>
  <rect x="10" y="44" width="2" height="10" rx="1" fill="#4f46e5" opacity="0.5"/>
  <rect x="44" y="52" width="10" height="2" rx="1" fill="#06b6d4" opacity="0.5"/>
  <rect x="52" y="44" width="2" height="10" rx="1" fill="#06b6d4" opacity="0.5"/>
</svg>